<svg width="152" height="41" viewBox="0 0 152 41" fill="none" xmlns="http://www.w3.org/2000/svg">
<path d="M151.993 4.22203C151.993 1.89027 150.103 0 147.771 0H4.22203C1.89027 0 0 1.89026 0 4.22202V36.3094C0 38.6412 1.89026 40.5315 4.22202 40.5315H130.946C131.883 40.5315 132.793 40.22 133.533 39.646L150.358 26.5999C151.389 25.8002 151.993 24.5684 151.993 23.2633V4.22203Z" fill="white" fill-opacity="0.05"/>
<path d="M147.771 0.211101C149.986 0.211101 151.782 2.00685 151.782 4.22203V23.2633C151.782 24.5032 151.209 25.6733 150.229 26.433L133.404 39.4791C132.7 40.0244 131.836 40.3204 130.946 40.3204H4.22202C2.00685 40.3204 0.211101 38.5246 0.211101 36.3094V4.22202C0.211101 2.00685 2.00685 0.211101 4.22203 0.211101H147.771Z" stroke="url(#paint0_linear_60_52)" stroke-opacity="0.7" stroke-width="0.422203"/>
<defs>
<linearGradient id="paint0_linear_60_52" x1="165.347" y1="41.9304" x2="156.941" y2="-16.9107" gradientUnits="userSpaceOnUse">
<stop stop-color="#84F729"/>
<stop offset="1" stop-color="#15BFFD"/>
</linearGradient>
</defs>
</svg>
